<?xml version="1.0" encoding="UTF-8"?>
<svg version="1.1" xmlns="http://www.w3.org/2000/svg" width="100" height="100">
<path d="M0 0 C3.96069734 2.44776016 7.29909466 5.19570011 10.515625 8.5546875 C10.99644531 9.0496875 11.47726563 9.5446875 11.97265625 10.0546875 C18.96022509 17.8233441 22.11887344 27.963777 21.76171875 38.36328125 C20.74864041 47.38450265 18.09844216 54.4000092 12.515625 61.5546875 C14.15295558 65.84481783 17.40817984 68.61139608 20.65234375 71.7109375 C21.88127744 72.90972782 23.10978037 74.10895987 24.33789062 75.30859375 C26.27532514 77.19008149 28.21637961 79.06740282 30.1652832 80.93701172 C32.04704057 82.74647585 33.91299837 84.57106241 35.77734375 86.3984375 C36.36682297 86.95583618 36.95630219 87.51323486 37.56364441 88.08752441 C39.18237305 89.68554687 39.18237305 89.68554687 41.515625 92.5546875 C41.16145325 94.73400879 41.16145325 94.73400879 40.515625 96.5546875 C37.36333414 95.97633546 35.73476962 95.14500227 33.49121094 92.87084961 C32.93093201 92.31034409 32.37065308 91.74983856 31.793396 91.17234802 C31.20157532 90.56504349 30.60975464 89.95773895 30 89.33203125 C29.38417053 88.71195694 28.76834106 88.09188263 28.1338501 87.45301819 C26.17061865 85.47300845 24.21808064 83.48281831 22.265625 81.4921875 C20.93558752 80.14710215 19.60486621 78.80269262 18.2734375 77.45898438 C15.01284963 74.16533844 11.76181312 70.86252411 8.515625 67.5546875 C6.41132876 68.60061643 4.32281498 69.65858513 2.25390625 70.7734375 C-9.1326134 76.78757348 -19.08402545 77.91280729 -31.53125 74.51953125 C-41.02854672 71.41657849 -49.17488714 65.44872778 -54.125 56.6328125 C-59.0940375 45.83800689 -60.30849302 34.68758443 -57.68359375 22.984375 C-53.44854618 11.83644909 -45.20262691 3.59857075 -34.484375 -1.4453125 C-24.01396661 -5.77427963 -10.04369815 -4.96573903 0 0 Z M-46.484375 14.5546875 C-53.31782643 23.24889096 -54.62536732 32.69197486 -53.484375 43.5546875 C-50.01093656 55.91266477 -43.56599463 62.38455437 -32.65234375 68.59765625 C-24.75532518 72.26228578 -14.16911095 71.91384178 -6.109375 68.9921875 C4.14988677 64.1011441 10.45457816 57.24412133 14.65234375 46.69921875 C17.25528637 37.2179119 16.36891656 27.09708541 11.515625 18.5546875 C7.71553739 12.12110452 3.02667584 8.15201507 -3.484375 4.5546875 C-4.40669922 4.04228516 -4.40669922 4.04228516 -5.34765625 3.51953125 C-20.39001438 -3.4057514 -36.11133381 3.20800346 -46.484375 14.5546875 Z " fill="#FFFFFF" transform="translate(58.484375,3.4453125)"/>
</svg>
